<svg xmlns="http://www.w3.org/2000/svg" width="50" height="50" viewBox="0 0 50 50">
  <g id="_x30_1_calendar_clock" transform="translate(-1 -1)">
    <path id="Path_678" data-name="Path 678" d="M51,11v3.333H1V11A8.334,8.334,0,0,1,7.667,2.833v1.5a1.667,1.667,0,1,0,3.333,0V2.667h5V4.333a1.667,1.667,0,1,0,3.333,0V2.667h5V4.333a1.667,1.667,0,0,0,3.333,0V2.667h5V4.333a1.667,1.667,0,1,0,3.333,0V2.667h5V4.333a1.667,1.667,0,0,0,3.333,0v-1.5A8.334,8.334,0,0,1,51,11ZM26,1a1.672,1.672,0,0,0-1.667,1.667h3.333A1.672,1.672,0,0,0,26,1ZM9.333,1A1.672,1.672,0,0,0,7.667,2.667v.167a7.854,7.854,0,0,1,1.667-.167H11A1.672,1.672,0,0,0,9.333,1Zm8.333,0A1.672,1.672,0,0,0,16,2.667h3.333A1.672,1.672,0,0,0,17.667,1ZM34.333,1a1.672,1.672,0,0,0-1.667,1.667H36A1.672,1.672,0,0,0,34.333,1Zm8.333,0A1.672,1.672,0,0,0,41,2.667h1.667a7.854,7.854,0,0,1,1.667.167V2.667A1.672,1.672,0,0,0,42.667,1ZM51,39.333A11.667,11.667,0,1,1,39.333,27.667,11.658,11.658,0,0,1,51,39.333Zm-6.667,0a1.672,1.672,0,0,0-1.667-1.667H41V34.333a1.667,1.667,0,0,0-3.333,0v5A1.672,1.672,0,0,0,39.333,41h3.333A1.672,1.672,0,0,0,44.333,39.333ZM51,17.667V29.933A14.985,14.985,0,1,0,29.933,51H9.333A8.336,8.336,0,0,1,1,42.667v-25Zm-38.333,25A1.667,1.667,0,1,0,11,44.333,1.672,1.672,0,0,0,12.667,42.667Zm0-8.333A1.667,1.667,0,1,0,11,36,1.672,1.672,0,0,0,12.667,34.333Zm0-8.333A1.667,1.667,0,1,0,11,27.667,1.672,1.672,0,0,0,12.667,26Zm10,16.667A1.667,1.667,0,1,0,21,44.333,1.672,1.672,0,0,0,22.667,42.667Zm0-8.333A1.667,1.667,0,1,0,21,36,1.672,1.672,0,0,0,22.667,34.333Zm0-8.333A1.667,1.667,0,1,0,21,27.667,1.672,1.672,0,0,0,22.667,26Z" fill="#fff"/>
  </g>
</svg>
