<svg id="people_1_" data-name="people (1)" xmlns="http://www.w3.org/2000/svg" width="50" height="50" viewBox="0 0 50 50">
  <ellipse id="Ellipse_14" data-name="Ellipse 14" cx="5" cy="5.5" rx="5" ry="5.5" transform="translate(20)" fill="#fff"/>
  <path id="Path_684" data-name="Path 684" d="M15.341,414.961a8.283,8.283,0,0,1-12.128,0A7.322,7.322,0,0,0,0,421.02v1.953a1.465,1.465,0,0,0,1.465,1.465H17.09a1.465,1.465,0,0,0,1.465-1.465V421.02A7.322,7.322,0,0,0,15.341,414.961Z" transform="translate(0 -374.437)" fill="#fff"/>
  <path id="Path_685" data-name="Path 685" d="M337.341,414.961a8.283,8.283,0,0,1-12.128,0A7.322,7.322,0,0,0,322,421.02v1.953a1.465,1.465,0,0,0,1.465,1.465H339.09a1.465,1.465,0,0,0,1.465-1.465V421.02A7.322,7.322,0,0,0,337.341,414.961Z" transform="translate(-290.555 -374.437)" fill="#fff"/>
  <path id="Path_686" data-name="Path 686" d="M71.516,137.657a5.37,5.37,0,1,0,.354-2.958l-6.386-1.983a4.4,4.4,0,0,0-2.925-3.972v-6.307h6.348a1.465,1.465,0,0,0,1.465-1.465V119.02a7.322,7.322,0,0,0-3.214-6.058,8.283,8.283,0,0,1-12.128,0,7.322,7.322,0,0,0-3.214,6.058v1.953a1.465,1.465,0,0,0,1.465,1.465h6.348v6.307a4.4,4.4,0,0,0-2.925,3.972L50.317,134.7a5.372,5.372,0,1,0,.354,2.958l6.9-2.143a4.39,4.39,0,0,0,7.041,0Z" transform="translate(-36.094 -101.93)" fill="#fff"/>
</svg>
