<svg xmlns="http://www.w3.org/2000/svg" width="50" height="50" viewBox="0 0 50 50">
  <path id="research" d="M12.35,62.589,20.8,54.928a2.954,2.954,0,0,0,.224.261l3.434,3.555a2.917,2.917,0,0,0,.252.232l-7.4,8.75c-2.162,2.557-7.432-2.9-4.962-5.137ZM50.016,40.843a.641.641,0,0,1,.224.858.6.6,0,0,1-.829.232l-1.3-.774a.641.641,0,0,1-.224-.858.6.6,0,0,1,.829-.232ZM40.089,25.692a.61.61,0,1,1,1.22,0v1.549a.61.61,0,1,1-1.22,0Zm-4.991,1.8a.642.642,0,0,1,.222-.861.6.6,0,0,1,.831.229L36.9,28.2a.642.642,0,0,1-.222.861.6.6,0,0,1-.831-.229L35.1,27.487Zm-3.458,4.138a.642.642,0,0,1-.222-.861.6.6,0,0,1,.831-.229l1.3.775a.642.642,0,0,1,.222.861.6.6,0,0,1-.831.229ZM30.647,37a.632.632,0,0,1,0-1.263h1.5a.632.632,0,0,1,0,1.263Zm1.732,5.167a.6.6,0,0,1-.829-.232.641.641,0,0,1,.224-.858l1.3-.774a.6.6,0,0,1,.829.232.641.641,0,0,1-.224.858Zm12.9-15.447a.6.6,0,0,1,.831-.229.642.642,0,0,1,.222.861l-.748,1.342a.6.6,0,0,1-.831.229.642.642,0,0,1-.222-.861l.748-1.342Zm4,3.58a.6.6,0,0,1,.831.229.642.642,0,0,1-.222.861l-1.3.775a.6.6,0,0,1-.831-.229.642.642,0,0,1,.222-.861Zm1.735,5.167a.632.632,0,0,1,0,1.263h-1.5a.632.632,0,0,1,0-1.263ZM38.227,48.473h5.206a.448.448,0,0,0,.438-.454V46.657H37.788v1.363a.448.448,0,0,0,.438.454ZM39.1,50.79h3.45a.448.448,0,0,0,.438-.454v-.6H38.666v.6a.448.448,0,0,0,.438.454Zm-1.316-5.4a17.73,17.73,0,0,0-2.665-5.442,7.127,7.127,0,0,1-1.035-3.718,6.746,6.746,0,1,1,13.484,0,7.126,7.126,0,0,1-1.035,3.718,17.731,17.731,0,0,0-2.665,5.442H42.525V38.785a1.948,1.948,0,0,0,1.68-.515,1.769,1.769,0,0,0-1.2-3,1.729,1.729,0,0,0-1.7,1.758v.5h-.952a2.114,2.114,0,0,0-.5-1.739,1.694,1.694,0,0,0-2.9,1.243,1.729,1.729,0,0,0,1.7,1.758h.479v6.609H37.788Zm3.517,0V38.785h-.952v6.609Zm-2.651-7.871h.479v-.5a.479.479,0,1,0-.958,0A.487.487,0,0,0,38.655,37.523Zm3.87-.5v.5H43a.5.5,0,0,0,0-.992.487.487,0,0,0-.479.5ZM27.7,30.9a8.63,8.63,0,0,1-.7,1.752l.594,1.207A.994.994,0,0,1,27.417,35l-1.379,1.427a.912.912,0,0,1-1.1.181l-1.165-.615a8.027,8.027,0,0,1-1.692.727l-.4,1.287a.94.94,0,0,1-.9.679h-1.95a.94.94,0,0,1-.9-.679l-.4-1.287a8.02,8.02,0,0,1-1.692-.726l-1.165.615a.912.912,0,0,1-1.1-.181L12.18,35a.994.994,0,0,1-.174-1.14l.594-1.207a8.637,8.637,0,0,1-.7-1.752l-1.243-.418A.966.966,0,0,1,10,29.549V27.531a.966.966,0,0,1,.655-.934l1.243-.418a8.626,8.626,0,0,1,.7-1.752l-.594-1.207a.994.994,0,0,1,.174-1.14l1.379-1.427a.912.912,0,0,1,1.1-.181l1.165.615a8.028,8.028,0,0,1,1.692-.727l.4-1.287a.94.94,0,0,1,.9-.679h1.95a.94.94,0,0,1,.9.679l.4,1.287a8.018,8.018,0,0,1,1.692.726l1.166-.615a.912.912,0,0,1,1.1.181l1.379,1.427a.994.994,0,0,1,.174,1.14L27,24.426a8.63,8.63,0,0,1,.7,1.752l1.243.418a.966.966,0,0,1,.655.934v2.019a.966.966,0,0,1-.655.934ZM23.112,25.11a4.573,4.573,0,0,0-6.626,0,4.973,4.973,0,0,0,0,6.86,4.573,4.573,0,0,0,6.626,0A4.973,4.973,0,0,0,23.112,25.11Zm31.273-.9a18.691,18.691,0,0,0-25.469-1.515,3.385,3.385,0,0,1-.55,1.736q.165.367.3.747a3.367,3.367,0,0,1,1.494.74,15.6,15.6,0,0,1,21.976.622,16.969,16.969,0,0,1,0,23.409,15.6,15.6,0,0,1-22.61,0,16.817,16.817,0,0,1-4.679-12.033,5.646,5.646,0,0,1-1.076-.5q-.355.17-.722.31l-.213.678a2.211,2.211,0,0,1-1.121,1.332,20.084,20.084,0,0,0,5.56,12.546,18.71,18.71,0,0,0,27.11,0,20.346,20.346,0,0,0,0-28.068ZM25.322,57.852a1.615,1.615,0,0,0,2.333,0l1.93-2a20.926,20.926,0,0,1-5.766-5.971l-1.93,2a1.756,1.756,0,0,0,0,2.415l3.434,3.555Z" transform="translate(-9.999 -18.394)" fill="#fff" fill-rule="evenodd"/>
</svg>
