<svg xmlns="http://www.w3.org/2000/svg" width="49.999" height="50" viewBox="0 0 49.999 50">
  <g id="shopping-bag" transform="translate(-35.6 -11)">
    <path id="Path_679" data-name="Path 679" d="M39.285,47.794a1.984,1.984,0,0,1,1.1-3.383l5.067-.732a.759.759,0,0,0,.572-.415l2.27-4.589a1.972,1.972,0,0,1,1.778-1.1h0a1.972,1.972,0,0,1,1.778,1.108l2.262,4.592a.759.759,0,0,0,.563.414L56.3,32.07l0-.01a2.383,2.383,0,0,1,2.365-2.023H64.22l-.877-6.289a1.5,1.5,0,0,0-1.493-1.273H59.086V18.634a7.634,7.634,0,1,0-15.267,0v3.842H41.054a1.5,1.5,0,0,0-1.493,1.273L35.6,52.161a3.64,3.64,0,0,0,3.636,3.6h3.288l.64-3.714a.759.759,0,0,0-.218-.672Zm5.758-29.16a6.409,6.409,0,1,1,12.818,0v3.842H45.043Z" transform="translate(0 0)" fill="#fff"/>
    <path id="Path_680" data-name="Path 680" d="M83.644,296.826a1.582,1.582,0,0,1,1.286-1.082l3.617-.523a.366.366,0,0,0,.277-.2l1.62-3.276a1.582,1.582,0,0,1,1.426-.886h0a1.582,1.582,0,0,1,1.426.888l1.424,2.891,3.211-3.125a.76.76,0,0,0-.42-1.3l-5.066-.739a1.984,1.984,0,0,1-1.493-1.086L88.691,283.8a.745.745,0,0,0-.681-.424h0a.745.745,0,0,0-.681.423l-2.269,4.589a1.984,1.984,0,0,1-1.495,1.084L78.5,290.2a.759.759,0,0,0-.422,1.295l3.663,3.576a1.983,1.983,0,0,1,.569,1.756l-.87,5.045a.759.759,0,0,0,1.1.8l3.79-1.988-2.285-2.231A1.581,1.581,0,0,1,83.644,296.826Z" transform="translate(-37.937 -244.58)" fill="#fff"/>
    <path id="Path_681" data-name="Path 681" d="M254.651,209.557H237.209a1.164,1.164,0,0,0-1.155.984l-1.619,11.616,3.862.564a1.984,1.984,0,0,1,1.1,3.385l-3,2.923,3.021.441a1.591,1.591,0,0,1,.88,2.715l-2.619,2.549a.367.367,0,0,0-.106.325l.378,2.214h18.231a2.955,2.955,0,0,0,2.951-2.911l-3.321-23.821A1.164,1.164,0,0,0,254.651,209.557Zm-2.22,7.051a6.5,6.5,0,1,1-13,0V213.2a.612.612,0,1,1,1.225,0v3.409a5.277,5.277,0,1,0,10.553,0V213.2a.612.612,0,1,1,1.225,0Z" transform="translate(-178.545 -178.295)" fill="#fff"/>
    <path id="Path_682" data-name="Path 682" d="M156.85,378.181a1.591,1.591,0,0,1,.459-1.408l2.618-2.549a.367.367,0,0,0-.2-.626l-3.616-.528a1.591,1.591,0,0,1-1.2-.871l-1.615-3.278a.367.367,0,0,0-.658,0l-1.62,3.276a1.591,1.591,0,0,1-1.2.87l-3.617.523a.367.367,0,0,0-.2.626l2.615,2.553a1.591,1.591,0,0,1,.457,1.409l-.621,3.6a.367.367,0,0,0,.532.387l3.235-1.7a1.592,1.592,0,0,1,1.481,0l3.233,1.7a.367.367,0,0,0,.533-.386Z" transform="translate(-99.034 -321.211)" fill="#fff"/>
    <path id="Path_683" data-name="Path 683" d="M156.85,378.181a1.591,1.591,0,0,1,.459-1.408l2.618-2.549a.367.367,0,0,0-.2-.626l-3.616-.528a1.591,1.591,0,0,1-1.2-.871l-1.615-3.278a.367.367,0,0,0-.658,0l-1.62,3.276a1.591,1.591,0,0,1-1.2.87l-3.617.523a.367.367,0,0,0-.2.626l2.615,2.553a1.591,1.591,0,0,1,.457,1.409l-.621,3.6a.367.367,0,0,0,.532.387l3.235-1.7a1.592,1.592,0,0,1,1.481,0l3.233,1.7a.367.367,0,0,0,.533-.386Z" transform="translate(-74.439 -354.211)" fill="#fff"/>
  </g>
</svg>
