<svg xmlns="http://www.w3.org/2000/svg" width="50" height="50" viewBox="0 0 50 50">
  <path id="study" d="M26.188,39.254l-13.03-4.559c1.668-2.894,5.073-4.8,9.031-5.721a10.2,10.2,0,0,0,11.5,0c3.958.916,7.364,2.826,9.031,5.721l-13.03,4.559H26.188Zm1.754-9.711a8.779,8.779,0,1,0-8.887-8.78,8.833,8.833,0,0,0,8.887,8.78ZM10.009,51.418l14.75,5.163V40.031l-14.75-5.16Zm27.774-2.635V47.519A3.113,3.113,0,0,1,39.083,45a3.113,3.113,0,0,1-1.3-2.522V41.212a3.149,3.149,0,0,1,3.163-3.122h4.926V34.871l-14.75,5.16v16.55l6.661-2.331v-.427a3.1,3.1,0,0,1,1.3-2.519,3.113,3.113,0,0,1-1.3-2.522ZM25.978,57.005H29.9V40.458H25.978Zm15.611-3.151H58.07a1.932,1.932,0,0,1,1.939-1.95H40.946A1.935,1.935,0,0,0,39,53.823V55.09A1.934,1.934,0,0,0,40.946,57H60.009a1.931,1.931,0,0,1-1.939-1.947H41.589a.6.6,0,1,1,0-1.2Zm0-6.307H58.07A1.931,1.931,0,0,1,60.009,45.6H40.946A1.935,1.935,0,0,0,39,47.519v1.264A1.935,1.935,0,0,0,40.946,50.7H60.009a1.932,1.932,0,0,1-1.939-1.95H41.589a.6.6,0,1,1,0-1.2Zm16.481-5.1H41.589a.6.6,0,1,1,0-1.2H58.07a1.932,1.932,0,0,1,1.939-1.95H40.946A1.935,1.935,0,0,0,39,41.212v1.264a1.935,1.935,0,0,0,1.942,1.918H60.009a1.931,1.931,0,0,1-1.939-1.947ZM52.608,16.838c-.052-.6-.527-1.064-.789-.788a4.507,4.507,0,0,0-.6,2.075c.631-.191,1.446-.583,1.389-1.286ZM47.86,24V19.385c-1.36-.31-2.8-1.116-2.668-2.644.147-1.719,1.887-2.576,2.892-1.511a5.619,5.619,0,0,1,.954,3.116,4.675,4.675,0,0,0,.936,0c.118-1.312.452-3.68,2.083-3.58a2.063,2.063,0,0,1,1.769,2.126c.02,1.449-1.366,2.194-2.673,2.493V24c.3,0,1.527-.017,1.734.017.732-2.658,2.878-3.6,2.878-6.677a6.258,6.258,0,0,0-12.514,0c0,3.079,2.146,4.019,2.875,6.677.207-.034,1.438-.017,1.734-.017Zm1.219-4.44V24h.856v-4.44ZM46.4,16.906c-.009.655.789,1.036,1.391,1.218a4.507,4.507,0,0,0-.6-2.075c-.279-.3-.786.262-.792.857Zm6.274,10.445L52.671,25.2l-6.335.006v2.146a1.044,1.044,0,0,0,1.049,1.036h4.243a1.044,1.044,0,0,0,1.049-1.036Zm-5.292,2.243-.1,0a1.065,1.065,0,0,0,1.066,1.073h2.313a1.067,1.067,0,0,0,1.069-1.073l-.1,0ZM57.01,13.75l1.328-.76a.593.593,0,0,0,.222-.82.611.611,0,0,0-.83-.219l-1.331.757a.6.6,0,0,0-.222.823.615.615,0,0,0,.833.219Zm-3.65-3.005a.612.612,0,0,0,.83-.222l.766-1.312a.6.6,0,0,0-.222-.82.612.612,0,0,0-.83.222l-.769,1.312a.6.6,0,0,0,.225.82Zm3.849,6.591a.6.6,0,0,0,.611.6h1.533a.6.6,0,1,0,0-1.2H57.82A.607.607,0,0,0,57.209,17.336Zm-7.7-7.61a.606.606,0,0,0,.608-.6V7.608a.609.609,0,0,0-1.219,0V9.125a.607.607,0,0,0,.611.6Zm-9.847,8.211h1.533a.6.6,0,1,0,0-1.2H39.662a.6.6,0,1,0,0,1.2Zm1.014-4.946L42,13.75a.615.615,0,0,0,.833-.219.6.6,0,0,0-.222-.823l-1.331-.757a.611.611,0,0,0-.83.219.593.593,0,0,0,.222.82Zm4.148-2.468a.612.612,0,0,0,.83.222.6.6,0,0,0,.225-.82l-.769-1.312a.609.609,0,0,0-.827-.222.6.6,0,0,0-.225.82l.766,1.312Z" transform="translate(-10.009 -7.005)" fill="#fff"/>
</svg>
